<mxfile host="app.diagrams.net" modified="2023-11-21T17:19:29.659Z" agent="Mozilla/5.0 (Macintosh; Intel Mac OS X 10_15_7) AppleWebKit/537.36 (KHTML, like Gecko) Chrome/119.0.0.0 Safari/537.36" etag="_1bT7vXabIKDUCFPS7KN" version="22.1.3" type="github">
  <diagram name="Seite-1" id="nK8Yi6ZxxenHy8w5aSEf">
    <mxGraphModel dx="2099" dy="808" grid="1" gridSize="10" guides="1" tooltips="1" connect="1" arrows="1" fold="1" page="1" pageScale="1" pageWidth="827" pageHeight="1169" math="0" shadow="0">
      <root>
        <mxCell id="0" />
        <mxCell id="1" parent="0" />
        <mxCell id="v8VzMCOKKeuK_YOFpvYh-1" value="Class &lt;b&gt;CommandHandler&lt;/b&gt;:&lt;br&gt;- manages&amp;nbsp;global commands like &#39;exit&#39; and &#39;inventory&#39;" style="rounded=1;whiteSpace=wrap;html=1;" parent="1" vertex="1">
          <mxGeometry x="-366" y="480" width="200" height="60" as="geometry" />
        </mxCell>
        <mxCell id="k7wtplZtl21-Dw7916h8-10" style="edgeStyle=orthogonalEdgeStyle;rounded=0;orthogonalLoop=1;jettySize=auto;html=1;entryX=0.5;entryY=1;entryDx=0;entryDy=0;" edge="1" parent="1" source="v8VzMCOKKeuK_YOFpvYh-2" target="k7wtplZtl21-Dw7916h8-1">
          <mxGeometry relative="1" as="geometry">
            <Array as="points">
              <mxPoint x="-146" y="320" />
              <mxPoint x="-146" y="320" />
            </Array>
          </mxGeometry>
        </mxCell>
        <mxCell id="v8VzMCOKKeuK_YOFpvYh-2" value="&lt;h1&gt;main_classes.py&lt;/h1&gt;" style="text;html=1;strokeColor=#6c8ebf;fillColor=#dae8fc;spacing=5;spacingTop=-20;whiteSpace=wrap;overflow=hidden;rounded=0;" parent="1" vertex="1">
          <mxGeometry x="-366" y="350" width="200" height="50" as="geometry" />
        </mxCell>
        <mxCell id="k7wtplZtl21-Dw7916h8-11" style="edgeStyle=orthogonalEdgeStyle;rounded=0;orthogonalLoop=1;jettySize=auto;html=1;entryX=1;entryY=0.5;entryDx=0;entryDy=0;" edge="1" parent="1" source="v8VzMCOKKeuK_YOFpvYh-4" target="k7wtplZtl21-Dw7916h8-1">
          <mxGeometry relative="1" as="geometry">
            <Array as="points">
              <mxPoint x="40" y="210" />
              <mxPoint x="40" y="210" />
            </Array>
          </mxGeometry>
        </mxCell>
        <mxCell id="v8VzMCOKKeuK_YOFpvYh-4" value="&lt;h1&gt;zdd_adventure.py&lt;/h1&gt;" style="text;html=1;strokeColor=#9673a6;fillColor=#e1d5e7;spacing=5;spacingTop=-20;whiteSpace=wrap;overflow=hidden;rounded=0;" parent="1" vertex="1">
          <mxGeometry x="84" y="185" width="220" height="50" as="geometry" />
        </mxCell>
        <mxCell id="k7wtplZtl21-Dw7916h8-15" style="edgeStyle=orthogonalEdgeStyle;rounded=0;orthogonalLoop=1;jettySize=auto;html=1;exitX=0.5;exitY=0;exitDx=0;exitDy=0;" edge="1" parent="1" source="v8VzMCOKKeuK_YOFpvYh-7">
          <mxGeometry relative="1" as="geometry">
            <mxPoint x="149.6363636363635" y="390" as="targetPoint" />
          </mxGeometry>
        </mxCell>
        <mxCell id="v8VzMCOKKeuK_YOFpvYh-7" value="Keeps all the special rooms within the game, such as the toilet in the cellar or the room you chose to add (in my case, the vr_room)" style="rounded=1;whiteSpace=wrap;html=1;" parent="1" vertex="1">
          <mxGeometry x="40" y="390" width="220" height="80" as="geometry" />
        </mxCell>
        <mxCell id="v8VzMCOKKeuK_YOFpvYh-8" value="Class &lt;b&gt;Item&lt;/b&gt;:&lt;br&gt;- represents individual game items with properties and interactions" style="rounded=1;whiteSpace=wrap;html=1;" parent="1" vertex="1">
          <mxGeometry x="-366" y="620" width="200" height="60" as="geometry" />
        </mxCell>
        <mxCell id="v8VzMCOKKeuK_YOFpvYh-11" value="Class &lt;b&gt;[add any room you like]&lt;/b&gt;:&lt;br&gt;- stores all the information about this room, prints out the storyline and handles inputs as well as outputs" style="rounded=1;whiteSpace=wrap;html=1;" parent="1" vertex="1">
          <mxGeometry x="40" y="480" width="220" height="100" as="geometry" />
        </mxCell>
        <mxCell id="v8VzMCOKKeuK_YOFpvYh-12" value="Class &lt;b&gt;ZDDAdventure&lt;/b&gt;:&lt;br&gt;- includes all important features, functions and parameters that &quot;form&quot; the play, e.g.: the floors, the items, the introduction" style="rounded=1;whiteSpace=wrap;html=1;" parent="1" vertex="1">
          <mxGeometry x="325" y="160" width="270" height="100" as="geometry" />
        </mxCell>
        <mxCell id="v8VzMCOKKeuK_YOFpvYh-13" value="Class &lt;b&gt;Room&lt;/b&gt;:&lt;br&gt;-&amp;nbsp;Encapsulates game rooms with descriptions, items, and interactions" style="rounded=1;whiteSpace=wrap;html=1;" parent="1" vertex="1">
          <mxGeometry x="-366" y="410" width="200" height="60" as="geometry" />
        </mxCell>
        <mxCell id="v8VzMCOKKeuK_YOFpvYh-14" value="Class &lt;b&gt;Floor&lt;/b&gt;:&lt;br&gt;-&amp;nbsp;Organizes rooms and their interconnections on a specific level of the game environment" style="rounded=1;whiteSpace=wrap;html=1;" parent="1" vertex="1">
          <mxGeometry x="-366" y="550" width="200" height="60" as="geometry" />
        </mxCell>
        <mxCell id="k7wtplZtl21-Dw7916h8-9" style="edgeStyle=orthogonalEdgeStyle;rounded=0;orthogonalLoop=1;jettySize=auto;html=1;entryX=0.25;entryY=1;entryDx=0;entryDy=0;" edge="1" parent="1" source="k7wtplZtl21-Dw7916h8-1" target="k7wtplZtl21-Dw7916h8-5">
          <mxGeometry relative="1" as="geometry" />
        </mxCell>
        <mxCell id="k7wtplZtl21-Dw7916h8-1" value="&lt;b&gt;folder&lt;/b&gt;: adventure" style="ellipse;whiteSpace=wrap;html=1;" vertex="1" parent="1">
          <mxGeometry x="-206" y="170" width="120" height="80" as="geometry" />
        </mxCell>
        <mxCell id="k7wtplZtl21-Dw7916h8-6" style="edgeStyle=orthogonalEdgeStyle;rounded=0;orthogonalLoop=1;jettySize=auto;html=1;entryX=0;entryY=0.5;entryDx=0;entryDy=0;" edge="1" parent="1" source="k7wtplZtl21-Dw7916h8-2" target="k7wtplZtl21-Dw7916h8-5">
          <mxGeometry relative="1" as="geometry">
            <Array as="points">
              <mxPoint x="-336" y="85" />
            </Array>
          </mxGeometry>
        </mxCell>
        <mxCell id="k7wtplZtl21-Dw7916h8-2" value=".gitignore" style="rounded=1;whiteSpace=wrap;html=1;" vertex="1" parent="1">
          <mxGeometry x="-500" y="60" width="120" height="60" as="geometry" />
        </mxCell>
        <mxCell id="k7wtplZtl21-Dw7916h8-7" style="edgeStyle=orthogonalEdgeStyle;rounded=0;orthogonalLoop=1;jettySize=auto;html=1;entryX=0;entryY=1;entryDx=0;entryDy=0;" edge="1" parent="1" source="k7wtplZtl21-Dw7916h8-3" target="k7wtplZtl21-Dw7916h8-5">
          <mxGeometry relative="1" as="geometry">
            <mxPoint x="-196" y="130" as="targetPoint" />
            <Array as="points">
              <mxPoint x="-246" y="180" />
              <mxPoint x="-246" y="120" />
            </Array>
          </mxGeometry>
        </mxCell>
        <mxCell id="k7wtplZtl21-Dw7916h8-3" value="LICENSE" style="rounded=1;whiteSpace=wrap;html=1;" vertex="1" parent="1">
          <mxGeometry x="-500" y="150" width="120" height="60" as="geometry" />
        </mxCell>
        <mxCell id="k7wtplZtl21-Dw7916h8-8" style="edgeStyle=orthogonalEdgeStyle;rounded=0;orthogonalLoop=1;jettySize=auto;html=1;entryX=0;entryY=0;entryDx=0;entryDy=0;" edge="1" parent="1" source="k7wtplZtl21-Dw7916h8-4" target="k7wtplZtl21-Dw7916h8-5">
          <mxGeometry relative="1" as="geometry">
            <mxPoint x="-206" y="130" as="targetPoint" />
            <Array as="points">
              <mxPoint x="-266" y="270" />
              <mxPoint x="-266" y="30" />
              <mxPoint x="-226" y="30" />
            </Array>
          </mxGeometry>
        </mxCell>
        <mxCell id="k7wtplZtl21-Dw7916h8-4" value="README.md" style="rounded=1;whiteSpace=wrap;html=1;" vertex="1" parent="1">
          <mxGeometry x="-500" y="240" width="120" height="60" as="geometry" />
        </mxCell>
        <mxCell id="k7wtplZtl21-Dw7916h8-5" value="zdd_adventure2023" style="text;html=1;strokeColor=#b85450;fillColor=#f8cecc;align=center;verticalAlign=middle;whiteSpace=wrap;rounded=0;fontStyle=1;fontSize=30;" vertex="1" parent="1">
          <mxGeometry x="-226" y="50" width="320" height="70" as="geometry" />
        </mxCell>
        <mxCell id="k7wtplZtl21-Dw7916h8-13" style="edgeStyle=orthogonalEdgeStyle;rounded=0;orthogonalLoop=1;jettySize=auto;html=1;entryX=1;entryY=1;entryDx=0;entryDy=0;" edge="1" parent="1" source="k7wtplZtl21-Dw7916h8-12" target="k7wtplZtl21-Dw7916h8-1">
          <mxGeometry relative="1" as="geometry" />
        </mxCell>
        <mxCell id="k7wtplZtl21-Dw7916h8-12" value="&lt;h1&gt;zdd_rooms.py&lt;/h1&gt;" style="text;html=1;strokeColor=#82b366;fillColor=#d5e8d4;spacing=5;spacingTop=-20;whiteSpace=wrap;overflow=hidden;rounded=0;" vertex="1" parent="1">
          <mxGeometry x="40" y="330" width="220" height="50" as="geometry" />
        </mxCell>
      </root>
    </mxGraphModel>
  </diagram>
</mxfile>
